<svg width="115" height="115" viewBox="0 0 115 115" fill="none" xmlns="http://www.w3.org/2000/svg">
<g opacity="0.3">
<mask id="mask0_440_1326" style="mask-type:alpha" maskUnits="userSpaceOnUse" x="13" y="0" width="11" height="11">
<path d="M18.5096 10.425C21.3972 10.425 23.738 8.09121 23.738 5.21245C23.738 2.33368 21.3972 0 18.5096 0C15.6221 0 13.2812 2.33368 13.2812 5.21245C13.2812 8.09121 15.6221 10.425 18.5096 10.425Z" fill="url(#paint0_linear_440_1326)"/>
</mask>
<g mask="url(#mask0_440_1326)">
<path d="M18.5096 10.425C21.3972 10.425 23.738 8.09121 23.738 5.21245C23.738 2.33368 21.3972 0 18.5096 0C15.6221 0 13.2812 2.33368 13.2812 5.21245C13.2812 8.09121 15.6221 10.425 18.5096 10.425Z" fill="url(#paint1_linear_440_1326)"/>
</g>
<mask id="mask1_440_1326" style="mask-type:alpha" maskUnits="userSpaceOnUse" x="43" y="0" width="12" height="11">
<path d="M48.7909 10.425C51.6784 10.425 54.0193 8.09121 54.0193 5.21245C54.0193 2.33368 51.6784 0 48.7909 0C45.9033 0 43.5625 2.33368 43.5625 5.21245C43.5625 8.09121 45.9033 10.425 48.7909 10.425Z" fill="url(#paint2_linear_440_1326)"/>
</mask>
<g mask="url(#mask1_440_1326)">
<path d="M48.7909 10.425C51.6784 10.425 54.0193 8.09121 54.0193 5.21245C54.0193 2.33368 51.6784 0 48.7909 0C45.9033 0 43.5625 2.33368 43.5625 5.21245C43.5625 8.09121 45.9033 10.425 48.7909 10.425Z" fill="url(#paint3_linear_440_1326)"/>
</g>
<mask id="mask2_440_1326" style="mask-type:alpha" maskUnits="userSpaceOnUse" x="73" y="0" width="12" height="11">
<path d="M79.0712 10.425C81.9587 10.425 84.2996 8.09121 84.2996 5.21245C84.2996 2.33368 81.9587 0 79.0712 0C76.1836 0 73.8428 2.33368 73.8428 5.21245C73.8428 8.09121 76.1836 10.425 79.0712 10.425Z" fill="url(#paint4_linear_440_1326)"/>
</mask>
<g mask="url(#mask2_440_1326)">
<path d="M79.0712 10.425C81.9587 10.425 84.2996 8.09121 84.2996 5.21245C84.2996 2.33368 81.9587 0 79.0712 0C76.1836 0 73.8428 2.33368 73.8428 5.21245C73.8428 8.09121 76.1836 10.425 79.0712 10.425Z" fill="url(#paint5_linear_440_1326)"/>
</g>
<mask id="mask3_440_1326" style="mask-type:alpha" maskUnits="userSpaceOnUse" x="104" y="0" width="11" height="11">
<path d="M109.352 10.425C112.24 10.425 114.581 8.09121 114.581 5.21245C114.581 2.33368 112.24 0 109.352 0C106.465 0 104.124 2.33368 104.124 5.21245C104.124 8.09121 106.465 10.425 109.352 10.425Z" fill="url(#paint6_linear_440_1326)"/>
</mask>
<g mask="url(#mask3_440_1326)">
<path d="M109.352 10.425C112.24 10.425 114.581 8.09121 114.581 5.21245C114.581 2.33368 112.24 0 109.352 0C106.465 0 104.124 2.33368 104.124 5.21245C104.124 8.09121 106.465 10.425 109.352 10.425Z" fill="url(#paint7_linear_440_1326)"/>
</g>
<mask id="mask4_440_1326" style="mask-type:alpha" maskUnits="userSpaceOnUse" x="13" y="26" width="11" height="11">
<path d="M18.5096 36.5958C21.3972 36.5958 23.738 34.2621 23.738 31.3833C23.738 28.5046 21.3972 26.1709 18.5096 26.1709C15.6221 26.1709 13.2812 28.5046 13.2812 31.3833C13.2812 34.2621 15.6221 36.5958 18.5096 36.5958Z" fill="url(#paint8_linear_440_1326)"/>
</mask>
<g mask="url(#mask4_440_1326)">
<path d="M18.5096 36.5958C21.3972 36.5958 23.738 34.2621 23.738 31.3833C23.738 28.5046 21.3972 26.1709 18.5096 26.1709C15.6221 26.1709 13.2812 28.5046 13.2812 31.3833C13.2812 34.2621 15.6221 36.5958 18.5096 36.5958Z" fill="url(#paint9_linear_440_1326)"/>
</g>
<mask id="mask5_440_1326" style="mask-type:alpha" maskUnits="userSpaceOnUse" x="43" y="26" width="12" height="11">
<path d="M48.7909 36.5958C51.6784 36.5958 54.0193 34.2621 54.0193 31.3833C54.0193 28.5046 51.6784 26.1709 48.7909 26.1709C45.9033 26.1709 43.5625 28.5046 43.5625 31.3833C43.5625 34.2621 45.9033 36.5958 48.7909 36.5958Z" fill="url(#paint10_linear_440_1326)"/>
</mask>
<g mask="url(#mask5_440_1326)">
<path d="M48.7909 36.5958C51.6784 36.5958 54.0193 34.2621 54.0193 31.3833C54.0193 28.5046 51.6784 26.1709 48.7909 26.1709C45.9033 26.1709 43.5625 28.5046 43.5625 31.3833C43.5625 34.2621 45.9033 36.5958 48.7909 36.5958Z" fill="url(#paint11_linear_440_1326)"/>
</g>
<mask id="mask6_440_1326" style="mask-type:alpha" maskUnits="userSpaceOnUse" x="73" y="26" width="12" height="11">
<path d="M79.0712 36.5958C81.9587 36.5958 84.2996 34.2621 84.2996 31.3833C84.2996 28.5046 81.9587 26.1709 79.0712 26.1709C76.1836 26.1709 73.8428 28.5046 73.8428 31.3833C73.8428 34.2621 76.1836 36.5958 79.0712 36.5958Z" fill="url(#paint12_linear_440_1326)"/>
</mask>
<g mask="url(#mask6_440_1326)">
<path d="M79.0712 36.5958C81.9587 36.5958 84.2996 34.2621 84.2996 31.3833C84.2996 28.5046 81.9587 26.1709 79.0712 26.1709C76.1836 26.1709 73.8428 28.5046 73.8428 31.3833C73.8428 34.2621 76.1836 36.5958 79.0712 36.5958Z" fill="url(#paint13_linear_440_1326)"/>
</g>
<mask id="mask7_440_1326" style="mask-type:alpha" maskUnits="userSpaceOnUse" x="104" y="26" width="11" height="11">
<path d="M109.352 36.5958C112.24 36.5958 114.581 34.2621 114.581 31.3833C114.581 28.5046 112.24 26.1709 109.352 26.1709C106.465 26.1709 104.124 28.5046 104.124 31.3833C104.124 34.2621 106.465 36.5958 109.352 36.5958Z" fill="url(#paint14_linear_440_1326)"/>
</mask>
<g mask="url(#mask7_440_1326)">
<path d="M109.352 36.5958C112.24 36.5958 114.581 34.2621 114.581 31.3833C114.581 28.5046 112.24 26.1709 109.352 26.1709C106.465 26.1709 104.124 28.5046 104.124 31.3833C104.124 34.2621 106.465 36.5958 109.352 36.5958Z" fill="url(#paint15_linear_440_1326)"/>
</g>
<mask id="mask8_440_1326" style="mask-type:alpha" maskUnits="userSpaceOnUse" x="13" y="52" width="11" height="11">
<path d="M18.5096 62.7124C21.3972 62.7124 23.738 60.3787 23.738 57.5C23.738 54.6212 21.3972 52.2875 18.5096 52.2875C15.6221 52.2875 13.2812 54.6212 13.2812 57.5C13.2812 60.3787 15.6221 62.7124 18.5096 62.7124Z" fill="url(#paint16_linear_440_1326)"/>
</mask>
<g mask="url(#mask8_440_1326)">
<path d="M18.5096 62.7124C21.3972 62.7124 23.738 60.3787 23.738 57.5C23.738 54.6212 21.3972 52.2875 18.5096 52.2875C15.6221 52.2875 13.2812 54.6212 13.2812 57.5C13.2812 60.3787 15.6221 62.7124 18.5096 62.7124Z" fill="url(#paint17_linear_440_1326)"/>
</g>
<mask id="mask9_440_1326" style="mask-type:alpha" maskUnits="userSpaceOnUse" x="43" y="52" width="12" height="11">
<path d="M48.7909 62.7124C51.6784 62.7124 54.0193 60.3787 54.0193 57.5C54.0193 54.6212 51.6784 52.2875 48.7909 52.2875C45.9033 52.2875 43.5625 54.6212 43.5625 57.5C43.5625 60.3787 45.9033 62.7124 48.7909 62.7124Z" fill="url(#paint18_linear_440_1326)"/>
</mask>
<g mask="url(#mask9_440_1326)">
<path d="M48.7909 62.7124C51.6784 62.7124 54.0193 60.3787 54.0193 57.5C54.0193 54.6212 51.6784 52.2875 48.7909 52.2875C45.9033 52.2875 43.5625 54.6212 43.5625 57.5C43.5625 60.3787 45.9033 62.7124 48.7909 62.7124Z" fill="url(#paint19_linear_440_1326)"/>
</g>
<mask id="mask10_440_1326" style="mask-type:alpha" maskUnits="userSpaceOnUse" x="73" y="52" width="12" height="11">
<path d="M79.0712 62.7124C81.9587 62.7124 84.2996 60.3787 84.2996 57.5C84.2996 54.6212 81.9587 52.2875 79.0712 52.2875C76.1836 52.2875 73.8428 54.6212 73.8428 57.5C73.8428 60.3787 76.1836 62.7124 79.0712 62.7124Z" fill="url(#paint20_linear_440_1326)"/>
</mask>
<g mask="url(#mask10_440_1326)">
<path d="M79.0712 62.7124C81.9587 62.7124 84.2996 60.3787 84.2996 57.5C84.2996 54.6212 81.9587 52.2875 79.0712 52.2875C76.1836 52.2875 73.8428 54.6212 73.8428 57.5C73.8428 60.3787 76.1836 62.7124 79.0712 62.7124Z" fill="url(#paint21_linear_440_1326)"/>
</g>
<mask id="mask11_440_1326" style="mask-type:alpha" maskUnits="userSpaceOnUse" x="104" y="52" width="11" height="11">
<path d="M109.352 62.7124C112.24 62.7124 114.581 60.3787 114.581 57.5C114.581 54.6212 112.24 52.2875 109.352 52.2875C106.465 52.2875 104.124 54.6212 104.124 57.5C104.124 60.3787 106.465 62.7124 109.352 62.7124Z" fill="url(#paint22_linear_440_1326)"/>
</mask>
<g mask="url(#mask11_440_1326)">
<path d="M109.352 62.7124C112.24 62.7124 114.581 60.3787 114.581 57.5C114.581 54.6212 112.24 52.2875 109.352 52.2875C106.465 52.2875 104.124 54.6212 104.124 57.5C104.124 60.3787 106.465 62.7124 109.352 62.7124Z" fill="url(#paint23_linear_440_1326)"/>
</g>
<mask id="mask12_440_1326" style="mask-type:alpha" maskUnits="userSpaceOnUse" x="13" y="78" width="11" height="11">
<path d="M18.5096 88.8833C21.3972 88.8833 23.738 86.5496 23.738 83.6708C23.738 80.7921 21.3972 78.4584 18.5096 78.4584C15.6221 78.4584 13.2812 80.7921 13.2812 83.6708C13.2812 86.5496 15.6221 88.8833 18.5096 88.8833Z" fill="url(#paint24_linear_440_1326)"/>
</mask>
<g mask="url(#mask12_440_1326)">
<path d="M18.5096 88.8833C21.3972 88.8833 23.738 86.5496 23.738 83.6708C23.738 80.7921 21.3972 78.4584 18.5096 78.4584C15.6221 78.4584 13.2812 80.7921 13.2812 83.6708C13.2812 86.5496 15.6221 88.8833 18.5096 88.8833Z" fill="url(#paint25_linear_440_1326)"/>
</g>
<mask id="mask13_440_1326" style="mask-type:alpha" maskUnits="userSpaceOnUse" x="43" y="78" width="12" height="11">
<path d="M48.7909 88.8833C51.6784 88.8833 54.0193 86.5496 54.0193 83.6708C54.0193 80.7921 51.6784 78.4584 48.7909 78.4584C45.9033 78.4584 43.5625 80.7921 43.5625 83.6708C43.5625 86.5496 45.9033 88.8833 48.7909 88.8833Z" fill="url(#paint26_linear_440_1326)"/>
</mask>
<g mask="url(#mask13_440_1326)">
<path d="M48.7909 88.8833C51.6784 88.8833 54.0193 86.5496 54.0193 83.6708C54.0193 80.7921 51.6784 78.4584 48.7909 78.4584C45.9033 78.4584 43.5625 80.7921 43.5625 83.6708C43.5625 86.5496 45.9033 88.8833 48.7909 88.8833Z" fill="url(#paint27_linear_440_1326)"/>
</g>
<mask id="mask14_440_1326" style="mask-type:alpha" maskUnits="userSpaceOnUse" x="73" y="78" width="12" height="11">
<path d="M79.0712 88.8833C81.9587 88.8833 84.2996 86.5496 84.2996 83.6708C84.2996 80.7921 81.9587 78.4584 79.0712 78.4584C76.1836 78.4584 73.8428 80.7921 73.8428 83.6708C73.8428 86.5496 76.1836 88.8833 79.0712 88.8833Z" fill="url(#paint28_linear_440_1326)"/>
</mask>
<g mask="url(#mask14_440_1326)">
<path d="M79.0712 88.8833C81.9587 88.8833 84.2996 86.5496 84.2996 83.6708C84.2996 80.7921 81.9587 78.4584 79.0712 78.4584C76.1836 78.4584 73.8428 80.7921 73.8428 83.6708C73.8428 86.5496 76.1836 88.8833 79.0712 88.8833Z" fill="url(#paint29_linear_440_1326)"/>
</g>
<mask id="mask15_440_1326" style="mask-type:alpha" maskUnits="userSpaceOnUse" x="104" y="78" width="11" height="11">
<path d="M109.352 88.8833C112.24 88.8833 114.581 86.5496 114.581 83.6708C114.581 80.7921 112.24 78.4584 109.352 78.4584C106.465 78.4584 104.124 80.7921 104.124 83.6708C104.124 86.5496 106.465 88.8833 109.352 88.8833Z" fill="url(#paint30_linear_440_1326)"/>
</mask>
<g mask="url(#mask15_440_1326)">
<path d="M109.352 88.8833C112.24 88.8833 114.581 86.5496 114.581 83.6708C114.581 80.7921 112.24 78.4584 109.352 78.4584C106.465 78.4584 104.124 80.7921 104.124 83.6708C104.124 86.5496 106.465 88.8833 109.352 88.8833Z" fill="url(#paint31_linear_440_1326)"/>
</g>
<mask id="mask16_440_1326" style="mask-type:alpha" maskUnits="userSpaceOnUse" x="13" y="104" width="11" height="11">
<path d="M18.5096 115C21.3972 115 23.738 112.666 23.738 109.788C23.738 106.909 21.3972 104.575 18.5096 104.575C15.6221 104.575 13.2812 106.909 13.2812 109.788C13.2812 112.666 15.6221 115 18.5096 115Z" fill="url(#paint32_linear_440_1326)"/>
</mask>
<g mask="url(#mask16_440_1326)">
<path d="M18.5096 115C21.3972 115 23.738 112.666 23.738 109.788C23.738 106.909 21.3972 104.575 18.5096 104.575C15.6221 104.575 13.2812 106.909 13.2812 109.788C13.2812 112.666 15.6221 115 18.5096 115Z" fill="url(#paint33_linear_440_1326)"/>
</g>
<mask id="mask17_440_1326" style="mask-type:alpha" maskUnits="userSpaceOnUse" x="43" y="104" width="12" height="11">
<path d="M48.7909 115C51.6784 115 54.0193 112.666 54.0193 109.788C54.0193 106.909 51.6784 104.575 48.7909 104.575C45.9033 104.575 43.5625 106.909 43.5625 109.788C43.5625 112.666 45.9033 115 48.7909 115Z" fill="url(#paint34_linear_440_1326)"/>
</mask>
<g mask="url(#mask17_440_1326)">
<path d="M48.7909 115C51.6784 115 54.0193 112.666 54.0193 109.788C54.0193 106.909 51.6784 104.575 48.7909 104.575C45.9033 104.575 43.5625 106.909 43.5625 109.788C43.5625 112.666 45.9033 115 48.7909 115Z" fill="url(#paint35_linear_440_1326)"/>
</g>
<mask id="mask18_440_1326" style="mask-type:alpha" maskUnits="userSpaceOnUse" x="73" y="104" width="12" height="11">
<path d="M79.0712 115C81.9587 115 84.2996 112.666 84.2996 109.788C84.2996 106.909 81.9587 104.575 79.0712 104.575C76.1836 104.575 73.8428 106.909 73.8428 109.788C73.8428 112.666 76.1836 115 79.0712 115Z" fill="url(#paint36_linear_440_1326)"/>
</mask>
<g mask="url(#mask18_440_1326)">
<path d="M79.0712 115C81.9587 115 84.2996 112.666 84.2996 109.788C84.2996 106.909 81.9587 104.575 79.0712 104.575C76.1836 104.575 73.8428 106.909 73.8428 109.788C73.8428 112.666 76.1836 115 79.0712 115Z" fill="url(#paint37_linear_440_1326)"/>
</g>
<mask id="mask19_440_1326" style="mask-type:alpha" maskUnits="userSpaceOnUse" x="104" y="104" width="11" height="11">
<path d="M109.352 115C112.24 115 114.581 112.666 114.581 109.788C114.581 106.909 112.24 104.575 109.352 104.575C106.465 104.575 104.124 106.909 104.124 109.788C104.124 112.666 106.465 115 109.352 115Z" fill="url(#paint38_linear_440_1326)"/>
</mask>
<g mask="url(#mask19_440_1326)">
<path d="M109.352 115C112.24 115 114.581 112.666 114.581 109.788C114.581 106.909 112.24 104.575 109.352 104.575C106.465 104.575 104.124 106.909 104.124 109.788C104.124 112.666 106.465 115 109.352 115Z" fill="url(#paint39_linear_440_1326)"/>
</g>
</g>
<defs>
<linearGradient id="paint0_linear_440_1326" x1="64.2007" y1="120.843" x2="-7.20093" y2="-60.9613" gradientUnits="userSpaceOnUse">
<stop/>
<stop offset="1" stop-color="white"/>
</linearGradient>
<linearGradient id="paint1_linear_440_1326" x1="64.2007" y1="120.843" x2="-7.20093" y2="-60.9613" gradientUnits="userSpaceOnUse">
<stop stop-color="#97C3F9"/>
<stop offset="1" stop-color="#93C1F9"/>
</linearGradient>
<linearGradient id="paint2_linear_440_1326" x1="90.4053" y1="110.551" x2="19.0037" y2="-71.2526" gradientUnits="userSpaceOnUse">
<stop/>
<stop offset="1" stop-color="white"/>
</linearGradient>
<linearGradient id="paint3_linear_440_1326" x1="90.4053" y1="110.551" x2="19.0037" y2="-71.2526" gradientUnits="userSpaceOnUse">
<stop stop-color="#97C3F9"/>
<stop offset="1" stop-color="#93C1F9"/>
</linearGradient>
<linearGradient id="paint4_linear_440_1326" x1="116.609" y1="100.259" x2="45.2071" y2="-81.5444" gradientUnits="userSpaceOnUse">
<stop/>
<stop offset="1" stop-color="white"/>
</linearGradient>
<linearGradient id="paint5_linear_440_1326" x1="116.609" y1="100.259" x2="45.2071" y2="-81.5444" gradientUnits="userSpaceOnUse">
<stop stop-color="#97C3F9"/>
<stop offset="1" stop-color="#93C1F9"/>
</linearGradient>
<linearGradient id="paint6_linear_440_1326" x1="142.813" y1="89.9679" x2="71.4116" y2="-91.8359" gradientUnits="userSpaceOnUse">
<stop/>
<stop offset="1" stop-color="white"/>
</linearGradient>
<linearGradient id="paint7_linear_440_1326" x1="142.813" y1="89.9679" x2="71.4116" y2="-91.8359" gradientUnits="userSpaceOnUse">
<stop stop-color="#97C3F9"/>
<stop offset="1" stop-color="#93C1F9"/>
</linearGradient>
<linearGradient id="paint8_linear_440_1326" x1="55.2583" y1="124.354" x2="-16.1421" y2="-57.4491" gradientUnits="userSpaceOnUse">
<stop/>
<stop offset="1" stop-color="white"/>
</linearGradient>
<linearGradient id="paint9_linear_440_1326" x1="55.2583" y1="124.354" x2="-16.1421" y2="-57.4491" gradientUnits="userSpaceOnUse">
<stop stop-color="#97C3F9"/>
<stop offset="1" stop-color="#93C1F9"/>
</linearGradient>
<linearGradient id="paint10_linear_440_1326" x1="81.4628" y1="114.062" x2="10.0624" y2="-67.7404" gradientUnits="userSpaceOnUse">
<stop/>
<stop offset="1" stop-color="white"/>
</linearGradient>
<linearGradient id="paint11_linear_440_1326" x1="81.4628" y1="114.062" x2="10.0624" y2="-67.7404" gradientUnits="userSpaceOnUse">
<stop stop-color="#97C3F9"/>
<stop offset="1" stop-color="#93C1F9"/>
</linearGradient>
<linearGradient id="paint12_linear_440_1326" x1="107.666" y1="103.771" x2="36.2659" y2="-78.0318" gradientUnits="userSpaceOnUse">
<stop/>
<stop offset="1" stop-color="white"/>
</linearGradient>
<linearGradient id="paint13_linear_440_1326" x1="107.666" y1="103.771" x2="36.2659" y2="-78.0318" gradientUnits="userSpaceOnUse">
<stop stop-color="#97C3F9"/>
<stop offset="1" stop-color="#93C1F9"/>
</linearGradient>
<linearGradient id="paint14_linear_440_1326" x1="133.871" y1="93.4793" x2="62.4705" y2="-88.3232" gradientUnits="userSpaceOnUse">
<stop/>
<stop offset="1" stop-color="white"/>
</linearGradient>
<linearGradient id="paint15_linear_440_1326" x1="133.871" y1="93.4793" x2="62.4705" y2="-88.3232" gradientUnits="userSpaceOnUse">
<stop stop-color="#97C3F9"/>
<stop offset="1" stop-color="#93C1F9"/>
</linearGradient>
<linearGradient id="paint16_linear_440_1326" x1="46.3159" y1="127.866" x2="-25.0857" y2="-53.9374" gradientUnits="userSpaceOnUse">
<stop/>
<stop offset="1" stop-color="white"/>
</linearGradient>
<linearGradient id="paint17_linear_440_1326" x1="46.3159" y1="127.866" x2="-25.0857" y2="-53.9374" gradientUnits="userSpaceOnUse">
<stop stop-color="#97C3F9"/>
<stop offset="1" stop-color="#93C1F9"/>
</linearGradient>
<linearGradient id="paint18_linear_440_1326" x1="72.5204" y1="117.575" x2="1.11886" y2="-64.2288" gradientUnits="userSpaceOnUse">
<stop/>
<stop offset="1" stop-color="white"/>
</linearGradient>
<linearGradient id="paint19_linear_440_1326" x1="72.5204" y1="117.575" x2="1.11886" y2="-64.2288" gradientUnits="userSpaceOnUse">
<stop stop-color="#97C3F9"/>
<stop offset="1" stop-color="#93C1F9"/>
</linearGradient>
<linearGradient id="paint20_linear_440_1326" x1="98.7239" y1="107.283" x2="27.3223" y2="-74.5205" gradientUnits="userSpaceOnUse">
<stop/>
<stop offset="1" stop-color="white"/>
</linearGradient>
<linearGradient id="paint21_linear_440_1326" x1="98.7239" y1="107.283" x2="27.3223" y2="-74.5205" gradientUnits="userSpaceOnUse">
<stop stop-color="#97C3F9"/>
<stop offset="1" stop-color="#93C1F9"/>
</linearGradient>
<linearGradient id="paint22_linear_440_1326" x1="124.928" y1="96.9919" x2="53.5268" y2="-84.812" gradientUnits="userSpaceOnUse">
<stop/>
<stop offset="1" stop-color="white"/>
</linearGradient>
<linearGradient id="paint23_linear_440_1326" x1="124.928" y1="96.9919" x2="53.5268" y2="-84.812" gradientUnits="userSpaceOnUse">
<stop stop-color="#97C3F9"/>
<stop offset="1" stop-color="#93C1F9"/>
</linearGradient>
<linearGradient id="paint24_linear_440_1326" x1="37.3736" y1="131.378" x2="-34.0281" y2="-50.4254" gradientUnits="userSpaceOnUse">
<stop/>
<stop offset="1" stop-color="white"/>
</linearGradient>
<linearGradient id="paint25_linear_440_1326" x1="37.3736" y1="131.378" x2="-34.0281" y2="-50.4254" gradientUnits="userSpaceOnUse">
<stop stop-color="#97C3F9"/>
<stop offset="1" stop-color="#93C1F9"/>
</linearGradient>
<linearGradient id="paint26_linear_440_1326" x1="63.578" y1="121.087" x2="-7.82354" y2="-60.7168" gradientUnits="userSpaceOnUse">
<stop/>
<stop offset="1" stop-color="white"/>
</linearGradient>
<linearGradient id="paint27_linear_440_1326" x1="63.578" y1="121.087" x2="-7.82354" y2="-60.7168" gradientUnits="userSpaceOnUse">
<stop stop-color="#97C3F9"/>
<stop offset="1" stop-color="#93C1F9"/>
</linearGradient>
<linearGradient id="paint28_linear_440_1326" x1="89.7816" y1="110.795" x2="18.3799" y2="-71.0085" gradientUnits="userSpaceOnUse">
<stop/>
<stop offset="1" stop-color="white"/>
</linearGradient>
<linearGradient id="paint29_linear_440_1326" x1="89.7816" y1="110.795" x2="18.3799" y2="-71.0085" gradientUnits="userSpaceOnUse">
<stop stop-color="#97C3F9"/>
<stop offset="1" stop-color="#93C1F9"/>
</linearGradient>
<linearGradient id="paint30_linear_440_1326" x1="115.986" y1="100.504" x2="44.5845" y2="-81.3" gradientUnits="userSpaceOnUse">
<stop/>
<stop offset="1" stop-color="white"/>
</linearGradient>
<linearGradient id="paint31_linear_440_1326" x1="115.986" y1="100.504" x2="44.5845" y2="-81.3" gradientUnits="userSpaceOnUse">
<stop stop-color="#97C3F9"/>
<stop offset="1" stop-color="#93C1F9"/>
</linearGradient>
<linearGradient id="paint32_linear_440_1326" x1="28.4312" y1="134.89" x2="-42.9705" y2="-46.9133" gradientUnits="userSpaceOnUse">
<stop/>
<stop offset="1" stop-color="white"/>
</linearGradient>
<linearGradient id="paint33_linear_440_1326" x1="28.4312" y1="134.89" x2="-42.9705" y2="-46.9133" gradientUnits="userSpaceOnUse">
<stop stop-color="#97C3F9"/>
<stop offset="1" stop-color="#93C1F9"/>
</linearGradient>
<linearGradient id="paint34_linear_440_1326" x1="54.6357" y1="124.599" x2="-16.7659" y2="-57.2047" gradientUnits="userSpaceOnUse">
<stop/>
<stop offset="1" stop-color="white"/>
</linearGradient>
<linearGradient id="paint35_linear_440_1326" x1="54.6357" y1="124.599" x2="-16.7659" y2="-57.2047" gradientUnits="userSpaceOnUse">
<stop stop-color="#97C3F9"/>
<stop offset="1" stop-color="#93C1F9"/>
</linearGradient>
<linearGradient id="paint36_linear_440_1326" x1="80.8392" y1="114.307" x2="9.4376" y2="-67.4963" gradientUnits="userSpaceOnUse">
<stop/>
<stop offset="1" stop-color="white"/>
</linearGradient>
<linearGradient id="paint37_linear_440_1326" x1="80.8392" y1="114.307" x2="9.4376" y2="-67.4963" gradientUnits="userSpaceOnUse">
<stop stop-color="#97C3F9"/>
<stop offset="1" stop-color="#93C1F9"/>
</linearGradient>
<linearGradient id="paint38_linear_440_1326" x1="107.044" y1="104.016" x2="35.6421" y2="-77.7878" gradientUnits="userSpaceOnUse">
<stop/>
<stop offset="1" stop-color="white"/>
</linearGradient>
<linearGradient id="paint39_linear_440_1326" x1="107.044" y1="104.016" x2="35.6421" y2="-77.7878" gradientUnits="userSpaceOnUse">
<stop stop-color="#97C3F9"/>
<stop offset="1" stop-color="#93C1F9"/>
</linearGradient>
</defs>
</svg>
