<svg width="16" height="21" viewBox="0 0 16 21" fill="none" xmlns="http://www.w3.org/2000/svg">
<path d="M13.2969 5.75H8.625V12.6397L10.9919 10.2732C11.1278 10.1441 11.3088 10.0732 11.4962 10.0756C11.6836 10.078 11.8627 10.1535 11.9952 10.286C12.1278 10.4186 12.2033 10.5976 12.2057 10.7851C12.2081 10.9725 12.1372 11.1534 12.0081 11.2893L8.41432 14.8831C8.27954 15.0178 8.09679 15.0934 7.90625 15.0934C7.71571 15.0934 7.53296 15.0178 7.39818 14.8831L3.80443 11.2893C3.67533 11.1534 3.60442 10.9725 3.60682 10.7851C3.60922 10.5976 3.68474 10.4186 3.81728 10.286C3.94982 10.1535 4.12889 10.078 4.31631 10.0756C4.50373 10.0732 4.68468 10.1441 4.82057 10.2732L7.1875 12.6397V5.75H2.51562C1.84866 5.75071 1.20921 6.01598 0.737598 6.4876C0.265981 6.95921 0.000713461 7.59866 0 8.26562V17.6094C0.000713461 18.2763 0.265981 18.9158 0.737598 19.3874C1.20921 19.859 1.84866 20.1243 2.51562 20.125H13.2969C13.9638 20.1243 14.6033 19.859 15.0749 19.3874C15.5465 18.9158 15.8118 18.2763 15.8125 17.6094V8.26562C15.8118 7.59866 15.5465 6.95921 15.0749 6.4876C14.6033 6.01598 13.9638 5.75071 13.2969 5.75ZM8.625 0.71875C8.625 0.528126 8.54928 0.345309 8.41448 0.210517C8.27969 0.0757252 8.09687 0 7.90625 0C7.71563 0 7.53281 0.0757252 7.39802 0.210517C7.26323 0.345309 7.1875 0.528126 7.1875 0.71875V5.75H8.625V0.71875Z" fill="#6A35F7"/>
</svg>
