<svg width="177" height="56" viewBox="0 0 177 56" fill="none" xmlns="http://www.w3.org/2000/svg">
<rect width="56" height="56" rx="16" fill="#6A35F7"/>
<path d="M26.9008 21.62V26.52H33.4808V29.628H26.9008V34.808H34.3208V38H22.9808V18.428H34.3208V21.62H26.9008Z" fill="white"/>
<path d="M85.852 21.62V26.52H92.432V29.628H85.852V34.808H93.272V38H81.932V18.428H93.272V21.62H85.852ZM95.8263 30.188C95.8263 28.62 96.1343 27.2293 96.7503 26.016C97.385 24.8027 98.2437 23.8693 99.3263 23.216C100.409 22.5627 101.613 22.236 102.938 22.236C103.946 22.236 104.908 22.46 105.822 22.908C106.737 23.3373 107.465 23.916 108.006 24.644V17.28H111.982V38H108.006V35.704C107.521 36.4693 106.84 37.0853 105.962 37.552C105.085 38.0187 104.068 38.252 102.91 38.252C101.604 38.252 100.409 37.916 99.3263 37.244C98.2437 36.572 97.385 35.6293 96.7503 34.416C96.1343 33.184 95.8263 31.7747 95.8263 30.188ZM108.034 30.244C108.034 29.292 107.848 28.48 107.474 27.808C107.101 27.1173 106.597 26.5947 105.962 26.24C105.328 25.8667 104.646 25.68 103.918 25.68C103.19 25.68 102.518 25.8573 101.902 26.212C101.286 26.5667 100.782 27.0893 100.39 27.78C100.017 28.452 99.8303 29.2547 99.8303 30.188C99.8303 31.1213 100.017 31.9427 100.39 32.652C100.782 33.3427 101.286 33.8747 101.902 34.248C102.537 34.6213 103.209 34.808 103.918 34.808C104.646 34.808 105.328 34.6307 105.962 34.276C106.597 33.9027 107.101 33.38 107.474 32.708C107.848 32.0173 108.034 31.196 108.034 30.244ZM130.455 22.488V38H126.507V36.04C126.003 36.712 125.34 37.244 124.519 37.636C123.716 38.0093 122.839 38.196 121.887 38.196C120.674 38.196 119.6 37.944 118.667 37.44C117.734 36.9173 116.996 36.1613 116.455 35.172C115.932 34.164 115.671 32.9693 115.671 31.588V22.488H119.591V31.028C119.591 32.26 119.899 33.212 120.515 33.884C121.131 34.5373 121.971 34.864 123.035 34.864C124.118 34.864 124.967 34.5373 125.583 33.884C126.199 33.212 126.507 32.26 126.507 31.028V22.488H130.455ZM137.095 20.556V27.08H144.207V29.18H137.095V35.9H145.047V38H134.547V18.456H145.047V20.556H137.095ZM151.45 25.148C151.898 24.2707 152.533 23.5893 153.354 23.104C154.194 22.6187 155.211 22.376 156.406 22.376V25.008H155.734C152.878 25.008 151.45 26.5573 151.45 29.656V38H148.902V22.656H151.45V25.148ZM158.395 30.272C158.395 28.704 158.713 27.332 159.347 26.156C159.982 24.9613 160.85 24.0373 161.951 23.384C163.071 22.7307 164.313 22.404 165.675 22.404C167.019 22.404 168.186 22.6933 169.175 23.272C170.165 23.8507 170.902 24.5787 171.387 25.456V22.656H173.963V38H171.387V35.144C170.883 36.04 170.127 36.7867 169.119 37.384C168.13 37.9627 166.973 38.252 165.647 38.252C164.285 38.252 163.053 37.916 161.951 37.244C160.85 36.572 159.982 35.6293 159.347 34.416C158.713 33.2027 158.395 31.8213 158.395 30.272ZM171.387 30.3C171.387 29.1427 171.154 28.1347 170.687 27.276C170.221 26.4173 169.586 25.764 168.783 25.316C167.999 24.8493 167.131 24.616 166.179 24.616C165.227 24.616 164.359 24.84 163.575 25.288C162.791 25.736 162.166 26.3893 161.699 27.248C161.233 28.1067 160.999 29.1147 160.999 30.272C160.999 31.448 161.233 32.4747 161.699 33.352C162.166 34.2107 162.791 34.8733 163.575 35.34C164.359 35.788 165.227 36.012 166.179 36.012C167.131 36.012 167.999 35.788 168.783 35.34C169.586 34.8733 170.221 34.2107 170.687 33.352C171.154 32.4747 171.387 31.4573 171.387 30.3Z" fill="white"/>
<path d="M85.292 21.116V26.828H92.012V29.432H85.292V35.396H92.852V38H82.1V18.512H92.852V21.116H85.292ZM95.7196 30.216C95.7196 28.6667 96.0369 27.2947 96.6716 26.1C97.3249 24.9053 98.2023 23.9813 99.3036 23.328C100.424 22.656 101.665 22.32 103.028 22.32C104.036 22.32 105.025 22.544 105.996 22.992C106.985 23.4213 107.769 24 108.348 24.728V17.28H111.568V38H108.348V35.676C107.825 36.4227 107.097 37.0387 106.164 37.524C105.249 38.0093 104.194 38.252 103 38.252C101.656 38.252 100.424 37.916 99.3036 37.244C98.2023 36.5533 97.3249 35.6013 96.6716 34.388C96.0369 33.156 95.7196 31.7653 95.7196 30.216ZM108.348 30.272C108.348 29.208 108.124 28.284 107.676 27.5C107.246 26.716 106.677 26.1187 105.968 25.708C105.258 25.2973 104.493 25.092 103.672 25.092C102.85 25.092 102.085 25.2973 101.376 25.708C100.666 26.1 100.088 26.688 99.6396 27.472C99.2103 28.2373 98.9956 29.152 98.9956 30.216C98.9956 31.28 99.2103 32.2133 99.6396 33.016C100.088 33.8187 100.666 34.4347 101.376 34.864C102.104 35.2747 102.869 35.48 103.672 35.48C104.493 35.48 105.258 35.2747 105.968 34.864C106.677 34.4533 107.246 33.856 107.676 33.072C108.124 32.2693 108.348 31.336 108.348 30.272ZM129.732 22.572V38H126.54V36.18C126.036 36.8147 125.373 37.3187 124.552 37.692C123.749 38.0467 122.891 38.224 121.976 38.224C120.763 38.224 119.671 37.972 118.7 37.468C117.748 36.964 116.992 36.2173 116.432 35.228C115.891 34.2387 115.62 33.044 115.62 31.644V22.572H118.784V31.168C118.784 32.5493 119.129 33.6133 119.82 34.36C120.511 35.088 121.453 35.452 122.648 35.452C123.843 35.452 124.785 35.088 125.476 34.36C126.185 33.6133 126.54 32.5493 126.54 31.168V22.572H129.732ZM137.136 21.116V26.828H143.856V29.432H137.136V35.396H144.696V38H133.944V18.512H144.696V21.116H137.136ZM151.819 24.812C152.286 24.028 152.902 23.4213 153.667 22.992C154.451 22.544 155.375 22.32 156.439 22.32V25.624H155.627C154.377 25.624 153.425 25.9413 152.771 26.576C152.137 27.2107 151.819 28.312 151.819 29.88V38H148.627V22.572H151.819V24.812ZM158.309 30.216C158.309 28.6667 158.627 27.2947 159.261 26.1C159.915 24.9053 160.792 23.9813 161.893 23.328C163.013 22.656 164.245 22.32 165.589 22.32C166.803 22.32 167.857 22.5627 168.753 23.048C169.668 23.5147 170.396 24.1027 170.937 24.812V22.572H174.157V38H170.937V35.704C170.396 36.432 169.659 37.0387 168.725 37.524C167.792 38.0093 166.728 38.252 165.533 38.252C164.208 38.252 162.995 37.916 161.893 37.244C160.792 36.5533 159.915 35.6013 159.261 34.388C158.627 33.156 158.309 31.7653 158.309 30.216ZM170.937 30.272C170.937 29.208 170.713 28.284 170.265 27.5C169.836 26.716 169.267 26.1187 168.557 25.708C167.848 25.2973 167.083 25.092 166.261 25.092C165.44 25.092 164.675 25.2973 163.965 25.708C163.256 26.1 162.677 26.688 162.229 27.472C161.8 28.2373 161.585 29.152 161.585 30.216C161.585 31.28 161.8 32.2133 162.229 33.016C162.677 33.8187 163.256 34.4347 163.965 34.864C164.693 35.2747 165.459 35.48 166.261 35.48C167.083 35.48 167.848 35.2747 168.557 34.864C169.267 34.4533 169.836 33.856 170.265 33.072C170.713 32.2693 170.937 31.336 170.937 30.272Z" fill="black"/>
</svg>
