<svg width="20" height="20" viewBox="0 0 19 19" fill="none" xmlns="http://www.w3.org/2000/svg">
<path d="M17.71 5.04006C17.37 5.38006 17.04 5.71006 17.03 6.04006C17 6.36006 17.34 6.69006 17.66 7.00006C18.14 7.50006 18.61 7.95006 18.59 8.44006C18.57 8.93006 18.06 9.44006 17.55 9.94006L13.42 14.0801L12 12.6601L16.25 8.42006L15.29 7.46006L13.87 8.87006L10.12 5.12006L13.96 1.29006C14.35 0.900059 15 0.900059 15.37 1.29006L17.71 3.63006C18.1 4.00006 18.1 4.65006 17.71 5.04006ZM0 15.2501L9.56 5.68006L13.31 9.43006L3.75 19.0001H0V15.2501Z" fill="#7A67C7"/>
</svg>
