<svg width="20" height="19" viewBox="0 0 20 19" fill="none" xmlns="http://www.w3.org/2000/svg">
<path fill-rule="evenodd" clip-rule="evenodd" d="M2.73637 8.45459C2.73637 5.05223 5.51743 2.28531 8.93717 2.28531C12.3569 2.28531 15.138 5.05223 15.138 8.45459C15.138 11.8569 12.3569 14.6239 8.93717 14.6239C5.51743 14.6239 2.73637 11.8569 2.73637 8.45459ZM18.969 16.9816L15.4604 13.4897C16.5486 12.0975 17.2049 10.3527 17.2049 8.45459C17.2049 3.91914 13.4958 0.228882 8.93717 0.228882C4.37855 0.228882 0.669434 3.91914 0.669434 8.45459C0.669434 12.99 4.37855 16.6803 8.93717 16.6803C10.8449 16.6803 12.5987 16.0274 13.9981 14.9447L17.5077 18.4355C17.7092 18.636 17.9738 18.7367 18.2384 18.7367C18.5029 18.7367 18.7675 18.636 18.969 18.4355C19.3731 18.0334 19.3731 17.3836 18.969 16.9816Z" fill="#6B779A"/>
</svg>
